<mxfile host="app.diagrams.net" modified="2020-05-07T12:07:42.754Z" agent="5.0 (Macintosh; Intel Mac OS X 10_13_6) AppleWebKit/537.36 (KHTML, like Gecko) Chrome/81.0.4044.122 Safari/537.36" etag="xpJsVTiB69wCi7-7uAcP" version="13.0.8" type="github">
  <diagram id="j_yM9vrV9C4bnFs_g4w8" name="Page-1">
    <mxGraphModel dx="2066" dy="1131" grid="1" gridSize="10" guides="1" tooltips="1" connect="1" arrows="1" fold="1" page="1" pageScale="1" pageWidth="827" pageHeight="1169" math="0" shadow="0">
      <root>
        <mxCell id="0" />
        <mxCell id="1" parent="0" />
        <mxCell id="PeJ9HvFg-H0hX3XUWtLG-3" value="" style="edgeStyle=orthogonalEdgeStyle;rounded=0;orthogonalLoop=1;jettySize=auto;html=1;" edge="1" parent="1" source="PeJ9HvFg-H0hX3XUWtLG-1" target="PeJ9HvFg-H0hX3XUWtLG-2">
          <mxGeometry relative="1" as="geometry" />
        </mxCell>
        <mxCell id="PeJ9HvFg-H0hX3XUWtLG-1" value="" style="whiteSpace=wrap;html=1;aspect=fixed;" vertex="1" parent="1">
          <mxGeometry x="70" y="170" width="80" height="80" as="geometry" />
        </mxCell>
        <mxCell id="PeJ9HvFg-H0hX3XUWtLG-5" value="" style="edgeStyle=orthogonalEdgeStyle;rounded=0;orthogonalLoop=1;jettySize=auto;html=1;" edge="1" parent="1" source="PeJ9HvFg-H0hX3XUWtLG-2" target="PeJ9HvFg-H0hX3XUWtLG-4">
          <mxGeometry relative="1" as="geometry" />
        </mxCell>
        <mxCell id="PeJ9HvFg-H0hX3XUWtLG-2" value="" style="whiteSpace=wrap;html=1;aspect=fixed;" vertex="1" parent="1">
          <mxGeometry x="230" y="170" width="80" height="80" as="geometry" />
        </mxCell>
        <mxCell id="PeJ9HvFg-H0hX3XUWtLG-7" value="" style="edgeStyle=orthogonalEdgeStyle;rounded=0;orthogonalLoop=1;jettySize=auto;html=1;" edge="1" parent="1" source="PeJ9HvFg-H0hX3XUWtLG-4" target="PeJ9HvFg-H0hX3XUWtLG-6">
          <mxGeometry relative="1" as="geometry" />
        </mxCell>
        <mxCell id="PeJ9HvFg-H0hX3XUWtLG-4" value="" style="whiteSpace=wrap;html=1;aspect=fixed;" vertex="1" parent="1">
          <mxGeometry x="390" y="170" width="80" height="80" as="geometry" />
        </mxCell>
        <mxCell id="PeJ9HvFg-H0hX3XUWtLG-9" value="" style="edgeStyle=orthogonalEdgeStyle;rounded=0;orthogonalLoop=1;jettySize=auto;html=1;" edge="1" parent="1" source="PeJ9HvFg-H0hX3XUWtLG-6" target="PeJ9HvFg-H0hX3XUWtLG-8">
          <mxGeometry relative="1" as="geometry" />
        </mxCell>
        <mxCell id="PeJ9HvFg-H0hX3XUWtLG-6" value="" style="whiteSpace=wrap;html=1;aspect=fixed;" vertex="1" parent="1">
          <mxGeometry x="550" y="170" width="80" height="80" as="geometry" />
        </mxCell>
        <mxCell id="PeJ9HvFg-H0hX3XUWtLG-11" value="" style="edgeStyle=orthogonalEdgeStyle;rounded=0;orthogonalLoop=1;jettySize=auto;html=1;" edge="1" parent="1" source="PeJ9HvFg-H0hX3XUWtLG-8" target="PeJ9HvFg-H0hX3XUWtLG-10">
          <mxGeometry relative="1" as="geometry" />
        </mxCell>
        <mxCell id="PeJ9HvFg-H0hX3XUWtLG-8" value="" style="whiteSpace=wrap;html=1;aspect=fixed;" vertex="1" parent="1">
          <mxGeometry x="710" y="170" width="80" height="80" as="geometry" />
        </mxCell>
        <mxCell id="PeJ9HvFg-H0hX3XUWtLG-13" value="" style="edgeStyle=orthogonalEdgeStyle;rounded=0;orthogonalLoop=1;jettySize=auto;html=1;" edge="1" parent="1" source="PeJ9HvFg-H0hX3XUWtLG-10" target="PeJ9HvFg-H0hX3XUWtLG-12">
          <mxGeometry relative="1" as="geometry" />
        </mxCell>
        <mxCell id="PeJ9HvFg-H0hX3XUWtLG-10" value="" style="whiteSpace=wrap;html=1;aspect=fixed;" vertex="1" parent="1">
          <mxGeometry x="870" y="170" width="80" height="80" as="geometry" />
        </mxCell>
        <mxCell id="PeJ9HvFg-H0hX3XUWtLG-15" value="" style="edgeStyle=orthogonalEdgeStyle;rounded=0;orthogonalLoop=1;jettySize=auto;html=1;" edge="1" parent="1" source="PeJ9HvFg-H0hX3XUWtLG-12" target="PeJ9HvFg-H0hX3XUWtLG-14">
          <mxGeometry relative="1" as="geometry" />
        </mxCell>
        <mxCell id="PeJ9HvFg-H0hX3XUWtLG-12" value="" style="whiteSpace=wrap;html=1;aspect=fixed;" vertex="1" parent="1">
          <mxGeometry x="1030" y="170" width="80" height="80" as="geometry" />
        </mxCell>
        <mxCell id="PeJ9HvFg-H0hX3XUWtLG-14" value="" style="whiteSpace=wrap;html=1;aspect=fixed;" vertex="1" parent="1">
          <mxGeometry x="1190" y="170" width="80" height="80" as="geometry" />
        </mxCell>
        <mxCell id="PeJ9HvFg-H0hX3XUWtLG-16" value="Base Module" style="whiteSpace=wrap;html=1;aspect=fixed;" vertex="1" parent="1">
          <mxGeometry x="70" y="330" width="80" height="80" as="geometry" />
        </mxCell>
      </root>
    </mxGraphModel>
  </diagram>
</mxfile>
